<svg width="41" height="33" viewBox="0 0 41 33" fill="none" xmlns="http://www.w3.org/2000/svg">
<path d="M0 32.0401V23.8583C0 21.3735 0.439394 18.7371 1.31818 15.9492C2.22727 13.131 3.5303 10.4189 5.22727 7.81286C6.95455 5.17649 9.0303 2.88861 11.4545 0.949219L17.2727 5.67649C15.3636 8.40377 13.697 11.2523 12.2727 14.2219C10.8788 17.1613 10.1818 20.3129 10.1818 23.6765V32.0401H0ZM23.2727 32.0401V23.8583C23.2727 21.3735 23.7121 18.7371 24.5909 15.9492C25.5 13.131 26.803 10.4189 28.5 7.81286C30.2273 5.17649 32.303 2.88861 34.7273 0.949219L40.5455 5.67649C38.6364 8.40377 36.9697 11.2523 35.5455 14.2219C34.1515 17.1613 33.4545 20.3129 33.4545 23.6765V32.0401H23.2727Z" fill="#001C39" fill-opacity="0.1"/>
</svg>
