<svg width="42" height="43" viewBox="0 0 42 43" fill="none" xmlns="http://www.w3.org/2000/svg">
<path d="M36.4613 12.7442C36.1113 12.9717 35.6126 13.1817 35.4026 13.418C35.3238 13.4967 35.2801 13.5842 35.2976 13.6717V14.573L35.0351 15.4567L34.7726 16.3317L34.4838 17.2942L33.8888 19.263L33.3113 21.2055L32.8738 22.6667C32.8738 22.8942 32.8651 23.1217 32.8476 23.3405C32.7863 24.1805 32.6113 24.9855 32.3313 25.738C32.1651 26.2017 31.9638 26.648 31.7188 27.068C31.6313 27.2342 31.5263 27.4005 31.4213 27.558C31.0713 28.1092 30.6513 28.6167 30.1876 29.063C29.8288 29.4217 29.4351 29.7542 29.0063 30.0342C29.0063 30.0342 29.0063 30.0342 28.9976 30.0342C28.9276 30.0955 28.8488 30.148 28.7613 30.1917C28.4901 30.3755 28.2013 30.533 27.9038 30.673C27.7026 30.778 27.5013 30.8655 27.2913 30.9442C27.2476 30.9705 27.1951 30.988 27.1513 31.0055C26.6526 31.2417 26.0751 31.3992 25.4976 31.478C25.4626 31.4867 25.4363 31.4867 25.4013 31.4955C25.0513 31.5567 24.7101 31.6092 24.3601 31.6355C24.2026 31.653 24.0363 31.6617 23.8788 31.6617L23.2576 31.6267L20.2651 31.4692C20.2651 31.4605 20.2563 31.4692 20.2563 31.4692L18.7513 31.3905C18.6376 31.3905 18.5151 31.3905 18.4013 31.3817C17.9288 31.3642 17.4738 31.3117 17.0188 31.2155C17.0101 31.2155 17.0101 31.2155 17.0101 31.2155C16.1788 31.058 15.3826 30.778 14.6388 30.4017C14.2276 30.1917 13.8251 29.9555 13.4488 29.6842C13.2913 29.5705 13.1426 29.448 12.9938 29.3167C12.5738 28.9667 12.1976 28.5905 11.8476 28.2055C11.7951 28.153 11.7513 28.1005 11.7076 28.048C11.6551 27.9955 11.6026 27.9342 11.5588 27.8817C11.2263 27.4617 10.9463 27.033 10.7188 26.578C10.5088 26.1755 10.3426 25.7467 10.2113 25.2742C10.1588 25.108 10.1151 24.9505 10.0801 24.7755C10.0713 24.7667 10.0626 24.7492 10.0626 24.7317C9.9751 24.373 9.89635 23.9967 9.8526 23.6205C9.8001 23.3317 9.77385 23.043 9.77385 22.7455C9.75635 22.6317 9.75635 22.5092 9.75635 22.3955L11.4276 19.8142L13.0638 17.2942L13.8076 16.148L14.4813 15.1155L14.7088 14.7567V13.8555C14.7263 13.6542 14.7351 13.4442 14.7263 13.2517C14.7176 12.6392 14.5951 12.0442 14.3938 11.4755C14.2013 10.8717 13.9301 10.303 13.6501 9.77797C13.3176 9.17422 12.9676 8.63172 12.6788 8.14172C12.2501 7.42422 11.9526 6.83797 12.0313 6.42672C12.6613 6.27797 13.3263 6.19922 14.0001 6.19922H28.0001C31.6576 6.19922 34.8076 8.47422 36.1113 11.6767C36.2513 12.018 36.3738 12.3767 36.4613 12.7442Z" fill="#304FFE"/>
<path d="M36.75 14.9492V15.1855L35.5425 15.8855L34.7725 16.3317L33.9237 16.8217L32.2262 17.8105L30.5637 18.773L28.8662 19.753L28.1925 20.1467C28.1925 20.5667 28.0875 20.9517 27.895 21.3017C27.6237 21.8092 27.1687 22.2292 26.5912 22.588C26.005 22.9467 25.2875 23.2355 24.4825 23.4455C24.4825 23.4455 24.4825 23.4367 24.4737 23.4455C21.3587 24.2505 17.1062 23.883 15.0412 22.343C14.4637 21.9142 14.0612 21.3892 13.8862 20.7855C13.8337 20.5842 13.8075 20.3655 13.8075 20.1467V13.8555C13.8162 13.7242 13.7287 13.593 13.5712 13.4617C13.0987 13.0855 11.9875 12.7267 10.745 12.368C9.77373 12.0967 8.73248 11.8255 7.85748 11.563C7.16623 11.353 6.57998 11.143 6.22998 10.9417C6.38748 10.6355 6.57123 10.3292 6.76373 10.0405C7.98873 8.24672 9.86123 6.92547 12.0312 6.42672C12.6612 6.27797 13.3262 6.19922 14 6.19922H23.45C28.1487 7.02172 32.48 8.93797 36.1112 11.6767C36.2512 12.018 36.3737 12.3767 36.4612 12.7442C36.6187 13.3217 36.715 13.9167 36.7412 14.538C36.75 14.6692 36.75 14.8092 36.75 14.9492Z" fill="#4928F4"/>
<path d="M36.7502 14.9495V18.8082L36.5577 19.4032L35.9014 21.442L35.2189 23.542L34.8602 24.662L34.5277 25.7032L34.2039 26.692L33.8889 27.672L33.7227 28.1882L33.5039 28.8707C33.5039 29.5357 33.4864 30.122 33.4427 30.6207C33.4339 30.6732 33.4252 30.7257 33.4252 30.7782C33.3727 31.242 33.3027 31.6357 33.1889 31.9682C33.1802 32.0207 33.1627 32.0732 33.1452 32.117C32.9177 32.747 32.5764 33.1495 32.0689 33.412C31.9464 33.482 31.8064 33.5345 31.6577 33.587C31.1939 33.7445 30.6077 33.8232 29.8902 33.867C29.3652 33.902 28.7614 33.9107 28.0789 33.9107H27.4752L26.4339 33.867L26.2502 33.8582L24.3514 33.7795L22.4264 33.7007L16.0827 33.4382L14.4377 33.3682H14.2102C13.5277 33.3595 12.9414 33.3157 12.4339 33.2457C11.6989 33.132 11.1302 32.9395 10.7014 32.6507C10.0889 32.257 9.73018 31.6795 9.52018 30.8745C9.46768 30.682 9.42393 30.4807 9.39768 30.262C9.31018 29.7545 9.26643 29.1682 9.24018 28.512C9.24018 28.3807 9.24018 28.2495 9.23143 28.1095C9.22268 28.1007 9.23143 28.1007 9.23143 28.1007V27.5932C9.22268 27.3395 9.22268 27.077 9.22268 26.8057L9.26643 25.397L9.29268 24.3907L9.32768 23.2182V23.052L9.38893 20.8995L9.45018 18.747L9.51143 16.7257L9.56393 14.7395L9.58143 14.2145C9.58143 13.9432 8.66268 13.7857 7.63893 13.6545C6.82518 13.5495 5.93268 13.4532 5.39893 13.3307C5.44268 13.1295 5.48643 12.9282 5.53893 12.7357C5.69643 12.1057 5.93268 11.5107 6.23018 10.942C6.38768 10.6357 6.57143 10.3295 6.76393 10.0407C8.65393 9.20945 10.6227 8.56195 12.6789 8.14195C14.4814 7.7657 16.3627 7.56445 18.3052 7.56445C24.7452 7.56445 30.6952 9.7432 35.4027 13.4182C35.8577 13.7682 36.3039 14.1445 36.7414 14.5382C36.7502 14.6695 36.7502 14.8095 36.7502 14.9495Z" fill="#6200EA"/>
<path d="M36.75 17.0244V20.9969L36.2688 21.9244L35.35 23.7181L34.86 24.6631L34.4138 25.5294L34.2213 25.9056C34.2213 26.1769 34.2213 26.4394 34.2038 26.6931C34.2038 27.0694 34.1863 27.4281 34.16 27.7606C34.125 28.1544 34.0725 28.5131 34.02 28.8456C33.8888 29.5369 33.705 30.1319 33.4425 30.6219C33.4075 30.6831 33.3725 30.7444 33.3375 30.7969C33.2412 30.9544 33.1275 31.1031 33.005 31.2431C32.8475 31.4356 32.6725 31.6019 32.4713 31.7419C32.1737 31.9694 31.8237 32.1531 31.4212 32.2931C30.9225 32.4769 30.345 32.5994 29.6625 32.6694C29.2163 32.7131 28.7263 32.7394 28.1925 32.7394L27.825 32.7569L26.005 32.8619H25.9963L24.0625 32.9756L22.0938 33.0894L19.3812 33.2469L16.0825 33.4394L15.6012 33.4656C15.155 33.4656 14.735 33.4394 14.3325 33.3869C14.2887 33.3781 14.2537 33.3694 14.21 33.3694C13.615 33.2731 13.0725 33.1156 12.5825 32.8969C11.9875 32.6344 11.4712 32.2844 11.0337 31.8644C10.6487 31.4881 10.3162 31.0594 10.045 30.5781C9.98375 30.4644 9.9225 30.3594 9.87 30.2369C9.6075 29.7206 9.3975 29.1431 9.24 28.5131C9.21375 28.4081 9.1875 28.2944 9.17 28.1806C9.1175 27.9794 9.07375 27.7694 9.0475 27.5506C8.95125 26.9906 8.89875 26.3956 8.8725 25.7744V25.7656C8.86375 25.5119 8.855 25.2669 8.855 25.0044L8.42625 23.9806L8.365 23.8231L8.3125 23.6919L7.65625 22.1256L7.55125 21.8719L6.92125 20.3581L6.22125 18.6694C6.22125 18.6694 6.22125 18.6694 6.2125 18.6694L5.50375 16.9631L5.25 16.3419V14.9506C5.25 14.3994 5.3025 13.8569 5.39875 13.3319C5.4425 13.1306 5.48625 12.9294 5.53875 12.7369C6.2825 12.3081 7.06125 11.9144 7.8575 11.5644C9.6775 10.7506 11.6288 10.1469 13.65 9.77938C15.155 9.50813 16.7213 9.35938 18.305 9.35938C24.7013 9.35938 30.5025 11.6781 35.035 15.4581C35.21 15.5981 35.3762 15.7381 35.5425 15.8869C35.9537 16.2456 36.3563 16.6219 36.75 17.0244Z" fill="#673AB7"/>
<path d="M36.75 19.6302V24.1277L36.2513 25.1689L35.3062 27.1377L35.2975 27.1639C35.2975 27.5402 35.28 27.8814 35.2537 28.1877C35.1663 29.1939 34.9213 29.8327 34.5188 30.2264C34.23 30.5239 33.8713 30.6902 33.425 30.7777C33.3988 30.7864 33.3637 30.7864 33.3375 30.7952C33.1975 30.8214 33.0487 30.8389 32.8913 30.8389C32.3488 30.8914 31.71 30.8564 30.975 30.8039C30.8963 30.8039 30.8088 30.7952 30.7213 30.7864C30.1875 30.7514 29.6188 30.7164 28.9888 30.6902C28.6475 30.6814 28.2887 30.6727 27.9212 30.6727H27.9037L27.02 30.7427H27.0113L25.025 30.8827L22.7588 31.0577L22.4262 31.0839L19.775 31.2764L18.4013 31.3814L17.045 31.4777C16.8087 31.4777 16.5813 31.4777 16.3538 31.4689C16.3538 31.4689 16.345 31.4602 16.345 31.4689C15.3562 31.4514 14.4725 31.3902 13.685 31.2414C12.9588 31.1189 12.32 30.9264 11.7775 30.6377C11.2175 30.3664 10.7537 29.9814 10.3775 29.4914C10.0187 29.0102 9.75625 28.4064 9.59 27.6802C9.59 27.6714 9.59 27.6714 9.59 27.6714C9.4675 27.0852 9.3975 26.4027 9.3975 25.6327L9.26625 25.3964L8.4875 24.0052L8.37375 23.8127L8.3125 23.6902L7.49875 22.2464L7.09625 21.5202L6.58875 20.6189L5.71375 19.0527L5.25 18.2302V15.0102C6.02 14.5027 6.81625 14.0564 7.63875 13.6539C8.63625 13.1464 9.66875 12.7177 10.745 12.3677C11.9175 11.9827 13.1425 11.6764 14.3938 11.4752C15.6625 11.2652 16.9663 11.1602 18.305 11.1602C24.255 11.1602 29.715 13.2864 33.9237 16.8214C34.1163 16.9702 34.3 17.1364 34.4837 17.2939C35.2188 17.9502 35.9187 18.6589 36.5575 19.4027C36.6275 19.4814 36.6975 19.5514 36.75 19.6302Z" fill="#8E24AA"/>
<path d="M36.75 22.5713V28.8976C36.54 28.7751 36.2513 28.6263 35.8925 28.4688C35.7 28.3726 35.4813 28.2763 35.2537 28.1888C34.9213 28.0401 34.5625 27.9001 34.16 27.7601C34.0725 27.7251 33.985 27.6988 33.8888 27.6726C33.7312 27.6113 33.565 27.5588 33.3987 27.5063C32.8825 27.3488 32.3137 27.2001 31.7188 27.0688C31.4912 27.0251 31.255 26.9813 31.0188 26.9463C30.2575 26.8151 29.4438 26.7363 28.595 26.7276C28.525 26.7188 28.4463 26.7188 28.3763 26.7188L26.1275 26.7363L23.065 26.7538H23.0562L16.5025 26.8063C14.42 26.8063 13.1425 27.3051 12.3725 27.5063C12.3725 27.5063 12.3637 27.5063 12.3637 27.5151C11.55 27.7251 11.2962 27.5938 11.2262 26.1676C11.2087 25.7738 11.2 25.2663 11.2 24.6451L10.71 24.2688L9.8525 23.6213L9.3275 23.2188L9.2225 23.1401L7.77 22.0376L7.55125 21.8713L7.09625 21.5213L6.25625 20.8913L5.25 20.1213V17.1463C5.3375 17.0763 5.41625 17.0151 5.50375 16.9626C6.7725 16.0876 8.12875 15.3438 9.56375 14.7401C10.8413 14.1976 12.1888 13.7688 13.5712 13.4626C13.9475 13.3838 14.3325 13.3051 14.7262 13.2526C15.89 13.0513 17.0887 12.9551 18.305 12.9551C23.5638 12.9551 28.3938 14.7838 32.2263 17.8113C32.8038 18.2663 33.3638 18.7476 33.8888 19.2638C34.6062 19.9463 35.28 20.6726 35.9012 21.4426C36.0237 21.6001 36.1462 21.7576 36.2688 21.9238C36.435 22.1338 36.5925 22.3526 36.75 22.5713Z" fill="#C2185B"/>
<path d="M36.75 26.0784V28.9484C36.75 29.5171 36.6975 30.0771 36.5925 30.6196C36.435 31.4246 36.1637 32.1946 35.7962 32.9121C35.6038 32.9559 35.385 32.9559 35.14 32.9209C34.5887 32.8246 33.9413 32.5359 33.2413 32.1596C33.2063 32.1509 33.1713 32.1334 33.145 32.1159C32.9263 32.0021 32.6988 31.8796 32.4713 31.7396C32.0075 31.4859 31.5175 31.2059 31.0275 30.9434C30.9225 30.8909 30.8175 30.8384 30.7213 30.7859C30.1613 30.4971 29.5838 30.2346 29.0063 30.0334C29.0063 30.0334 29.0063 30.0334 28.9975 30.0334C28.875 29.9896 28.7438 29.9459 28.6125 29.9109C28.1138 29.7709 27.6062 29.6834 27.1162 29.6834L26.1537 29.4034L21.8925 28.1696C21.8925 28.1696 21.8925 28.1696 21.8838 28.1696L19.2675 27.4084H19.2587L18.1212 27.0759C14.8312 27.0759 12.81 28.4759 11.83 27.9421C11.445 27.7409 11.2175 27.2334 11.1387 26.2359C11.1125 25.9559 11.1037 25.6409 11.1037 25.2734L10.08 24.7746L10.0363 24.7571H10.0275L9.2925 24.3896L8.4875 24.0046L8.42625 23.9784L8.2775 23.8996L6.5625 23.0684L5.25 22.4296V19.4284C5.39875 19.2971 5.55625 19.1746 5.71375 19.0521C5.88 18.9209 6.04625 18.7984 6.2125 18.6671C6.22125 18.6671 6.22125 18.6671 6.22125 18.6671C7.25375 17.9234 8.3475 17.2671 9.51125 16.7246C10.8675 16.0771 12.3112 15.5784 13.8075 15.2546C14.0262 15.2021 14.2537 15.1496 14.4812 15.1146C15.7237 14.8784 17.0013 14.7559 18.305 14.7559C22.9163 14.7559 27.1513 16.2521 30.5638 18.7721C31.5525 19.5071 32.4713 20.3209 33.3112 21.2046C34.0025 21.9309 34.6413 22.7184 35.2188 23.5409C35.2625 23.6021 35.3063 23.6634 35.35 23.7159C35.6738 24.1884 35.9713 24.6696 36.2513 25.1684C36.435 25.4659 36.5925 25.7721 36.75 26.0784Z" fill="#D81B60"/>
<path d="M36.5925 30.6208C36.435 31.4258 36.1637 32.1958 35.7962 32.9133C35.63 33.237 35.4462 33.5433 35.245 33.8408C35.1225 34.0245 34.9913 34.1995 34.86 34.3658C34.545 34.2433 34.0812 34.0683 33.5125 33.8758C33.5125 33.8758 33.5125 33.8758 33.5125 33.867C33.0837 33.7183 32.5938 33.5608 32.0688 33.412C31.92 33.3683 31.7713 33.3245 31.6138 33.2808C30.9925 33.1145 30.345 32.9658 29.715 32.8783C29.19 32.7908 28.6738 32.7383 28.1925 32.7383L27.79 32.6245H27.7812L25.6637 32.012L24.36 31.6358L22.9075 31.2158H22.8988L22.4262 31.0845L16.7125 29.4395L15.0675 28.967L13.8425 28.6783L11.8475 28.2058L11.6025 28.1445C11.6025 28.1445 11.6025 28.1445 11.5938 28.1445L9.59 27.6808C9.59 27.672 9.59 27.672 9.59 27.672L9.23125 27.5933L9.0475 27.5495L7.58625 27.2083L7.42 27.1645L6.1775 26.1408L5.25 25.362V21.792C5.57375 21.477 5.90625 21.1795 6.25625 20.8908C6.36125 20.7945 6.475 20.707 6.58875 20.6195C6.69375 20.532 6.8075 20.4445 6.92125 20.357C7.7175 19.7533 8.5575 19.2108 9.45 18.747C10.5875 18.1345 11.795 17.6445 13.0638 17.2945C13.3088 17.2158 13.5538 17.1458 13.8075 17.0933C15.2425 16.7345 16.7475 16.5508 18.305 16.5508C22.2162 16.5508 25.8563 17.732 28.8663 19.7533C30.3625 20.7595 31.71 21.967 32.8475 23.3408C33.425 24.032 33.95 24.7583 34.4138 25.5283C34.4575 25.5895 34.4925 25.642 34.5275 25.7033C34.8075 26.167 35.07 26.6483 35.3062 27.1383C35.525 27.5758 35.7175 28.0133 35.8925 28.4683C36.1725 29.1683 36.4 29.8858 36.5925 30.6208Z" fill="#F50057"/>
<path d="M35.245 33.8391C35.1225 34.0228 34.9913 34.1978 34.86 34.3641C34.475 34.8453 34.055 35.2828 33.5825 35.6678C33.1713 36.0091 32.7338 36.3153 32.27 36.5778C32.095 36.5341 31.92 36.4816 31.7362 36.4116C31.1588 36.2103 30.555 35.8778 29.995 35.5278C29.155 34.9941 28.4287 34.4166 28.105 34.1541C27.9825 34.0491 27.9212 33.9966 27.9212 33.9966L26.4338 33.8653L26.25 33.8478L24.325 33.6816L22.33 33.5066L19.3812 33.2441L14.7087 32.8328L14.6913 32.8241L13.0462 32.0278L11.3837 31.2228L10.045 30.5753L9.75625 30.4353L9.3975 30.2603L8.155 29.6566L6.50125 28.8603L5.985 28.6066L5.25 28.3791V24.4678C5.66125 23.9778 6.09875 23.5141 6.5625 23.0678C6.86 22.7878 7.175 22.5078 7.49875 22.2453C7.55125 22.2016 7.60375 22.1578 7.65625 22.1228C7.69125 22.0791 7.735 22.0528 7.77 22.0353C8.28625 21.6153 8.82875 21.2391 9.38875 20.8978C10.0362 20.4866 10.7188 20.1191 11.4275 19.8128C12.1888 19.4716 12.985 19.1828 13.8075 18.9641C15.2337 18.5616 16.7475 18.3516 18.305 18.3516C21.875 18.3516 25.1737 19.4366 27.895 21.3003C29.6362 22.4903 31.1413 23.9953 32.3313 25.7366C32.725 26.2966 33.075 26.8916 33.3987 27.5041C33.5125 27.7316 33.6263 27.9591 33.7225 28.1866C33.8275 28.4053 33.9238 28.6241 34.02 28.8428C34.2038 29.2978 34.37 29.7528 34.5188 30.2253C34.7987 31.1003 35.0087 31.9928 35.14 32.9203C35.1838 33.2266 35.2187 33.5328 35.245 33.8391Z" fill="#FF1744"/>
<path d="M33.5912 35.4415C33.5912 35.5115 33.5913 35.5902 33.5825 35.669C33.1713 36.0102 32.7338 36.3165 32.27 36.579C32.0775 36.684 31.885 36.789 31.6838 36.8765C31.4825 36.9727 31.2812 37.0602 31.0712 37.139C30.7737 36.9815 30.3713 36.789 29.9425 36.6052C29.3388 36.334 28.6825 36.089 28.175 36.0102C28.0525 35.984 27.9387 35.9752 27.8337 35.9752L26.3988 35.7915H26.3813L24.5963 35.5552L22.7937 35.319L21.9538 35.214L15.3388 34.3565C14.91 34.3565 14.455 34.3302 13.9825 34.269C13.405 34.2165 12.8012 34.129 12.1975 34.0065C11.6025 33.9015 10.9987 33.7615 10.4212 33.6127C9.8175 33.4727 9.2225 33.3065 8.67125 33.149C8.0325 32.9565 7.4375 32.7727 6.93875 32.6065C6.5275 32.4752 6.1775 32.3527 5.90625 32.2565C5.74875 31.8802 5.6175 31.4865 5.52125 31.084C5.3375 30.4015 5.25 29.684 5.25 28.949V27.4877C5.53 27.024 5.83625 26.569 6.1775 26.1402C6.79875 25.3177 7.5075 24.5652 8.2775 23.9002C8.30375 23.8652 8.33875 23.839 8.365 23.8215L8.37375 23.8127C8.645 23.5677 8.925 23.349 9.2225 23.139C9.2575 23.104 9.2925 23.0777 9.3275 23.0515C9.4675 22.9465 9.61625 22.8415 9.77375 22.7452C11.025 21.8965 12.4075 21.2315 13.8862 20.7852C15.2863 20.3652 16.765 20.1465 18.305 20.1465C21.3587 20.1465 24.2113 21.0477 26.5912 22.5877C28.35 23.7165 29.8638 25.204 31.0188 26.9452C31.1588 27.1465 31.29 27.3477 31.4212 27.5577C32.025 28.5815 32.5238 29.684 32.8913 30.839C32.935 30.9702 32.97 31.1015 33.005 31.2415C33.075 31.4777 33.1362 31.7227 33.1888 31.9677C33.2063 32.029 33.2238 32.0902 33.2413 32.1602C33.3638 32.7115 33.4513 33.289 33.5125 33.8665C33.5125 33.8752 33.5125 33.8752 33.5125 33.8752C33.565 34.3915 33.5912 34.9165 33.5912 35.4415Z" fill="#FF5722"/>
<path d="M31.789 35.4417C31.789 35.748 31.7715 36.0805 31.7365 36.413C31.719 36.5705 31.7015 36.728 31.684 36.8767C31.4827 36.973 31.2815 37.0605 31.0715 37.1392C30.6777 37.288 30.2752 37.4105 29.864 37.498C29.584 37.5592 29.2952 37.6117 29.0065 37.638H28.9977C28.7265 37.4717 28.4115 37.2705 28.0877 37.043C27.5015 36.6317 26.889 36.168 26.399 35.7917C26.3902 35.783 26.3902 35.783 26.3815 35.7742C25.8652 35.3805 25.4977 35.083 25.4977 35.083L24.5702 35.118L22.7852 35.1792L21.954 35.2142L18.6115 35.3367L15.7852 35.4417C15.6015 35.4505 15.3827 35.4505 15.1115 35.4417H15.1027C14.7352 35.433 14.2977 35.4067 13.8165 35.363C13.2565 35.3192 12.644 35.2667 12.0227 35.2055C11.419 35.1355 10.8065 35.0655 10.2202 34.9955C9.57273 34.9255 8.96023 34.8467 8.43523 34.7767C8.02398 34.7242 7.66523 34.6805 7.37648 34.6455C7.13148 34.3655 6.91273 34.0767 6.70273 33.7617C6.38773 33.2892 6.11648 32.7905 5.90648 32.2567C5.74898 31.8805 5.61773 31.4867 5.52148 31.0842C5.77523 30.3055 6.10773 29.5705 6.50148 28.8617C6.81648 28.2842 7.18398 27.733 7.58648 27.208C7.98023 26.6917 8.40898 26.2105 8.87273 25.773V25.7642C9.00398 25.633 9.13523 25.5105 9.26648 25.3967C9.51148 25.1692 9.76523 24.9592 10.0277 24.758H10.0365C10.0452 24.7405 10.054 24.7405 10.0627 24.7317C10.2727 24.5655 10.4915 24.4167 10.7102 24.268C12.0052 23.3842 13.4665 22.728 15.0415 22.343C16.0827 22.0892 17.1765 21.9492 18.3052 21.9492C20.5277 21.9492 22.6277 22.483 24.474 23.4455H24.4827C26.0665 24.2592 27.4665 25.3792 28.5952 26.7267C29.2165 27.4442 29.7502 28.2317 30.1877 29.063C30.494 29.623 30.7565 30.2092 30.9752 30.8042C30.9927 30.8567 31.0102 30.9005 31.0277 30.9442C31.1765 31.3817 31.3077 31.8367 31.4215 32.2917C31.5002 32.6155 31.5615 32.948 31.614 33.2805C31.6315 33.3855 31.649 33.4817 31.6577 33.5867C31.7452 34.1905 31.789 34.8117 31.789 35.4417Z" fill="#FF6F00"/>
<path d="M29.9951 35.442V35.5295C29.9951 35.827 29.9689 36.2032 29.9426 36.6057C29.9164 36.9032 29.8901 37.2095 29.8639 37.4982C29.5839 37.5595 29.2951 37.612 29.0064 37.6382H28.9976C28.6651 37.682 28.3414 37.6995 28.0001 37.6995H26.4689L26.1364 37.6032L24.4126 37.0782L22.6626 36.5532L18.6114 35.337L16.8614 34.812C16.8614 34.812 16.1351 35.1007 15.1114 35.442H15.1026C14.7089 35.5732 14.2801 35.7132 13.8251 35.8532C13.2564 36.0195 12.6526 36.1857 12.0576 36.317C11.4451 36.457 10.8414 36.562 10.2989 36.6057C10.1326 36.6232 9.96639 36.632 9.81764 36.632C9.32764 36.3607 8.85514 36.037 8.42639 35.6782C8.05014 35.3632 7.70014 35.022 7.37639 34.6457C7.13139 34.3657 6.91264 34.077 6.70264 33.762C6.76389 33.3682 6.83389 32.9832 6.93889 32.607C7.20139 31.5657 7.61264 30.5682 8.15514 29.6582C8.45264 29.142 8.78514 28.6432 9.17014 28.1795C9.17889 28.1532 9.20514 28.127 9.23139 28.1095C9.22264 28.1007 9.23139 28.1007 9.23139 28.1007C9.34514 27.952 9.46764 27.812 9.59014 27.6807C9.59014 27.672 9.59014 27.672 9.59014 27.672C9.94889 27.287 10.3164 26.9195 10.7189 26.5782C10.8589 26.4645 10.9901 26.3507 11.1389 26.237C11.1651 26.2107 11.1914 26.1932 11.2264 26.167C13.1951 24.662 15.6539 23.752 18.3051 23.752C21.3151 23.752 24.0539 24.8807 26.1276 26.7357C27.1251 27.637 27.9739 28.7132 28.6126 29.912C28.6651 29.9995 28.7176 30.0957 28.7614 30.192C28.8401 30.3495 28.9189 30.5157 28.9889 30.6907C29.2776 31.3207 29.5051 31.9857 29.6626 32.6682C29.6801 32.7382 29.6976 32.8082 29.7151 32.8782C29.7851 33.202 29.8464 33.5345 29.8901 33.867C29.9601 34.3832 29.9951 34.9082 29.9951 35.442Z" fill="#FF9800"/>
<path d="M28.1924 35.4431C28.1924 35.6181 28.1837 35.8106 28.1749 36.0119C28.1574 36.3356 28.1312 36.6856 28.0874 37.0444C28.0699 37.2631 28.0349 37.4819 27.9999 37.7006H23.2049L22.2774 37.5519L18.6549 36.9744L18.1387 36.8956L16.9574 36.7031C16.4412 36.7031 15.3212 36.9306 14.1399 37.1494C13.5187 37.2631 12.8887 37.3856 12.3199 37.4644C12.2499 37.4731 12.1799 37.4819 12.1187 37.4906H12.1099C11.4974 37.3594 10.9024 37.1581 10.3424 36.8956C10.1674 36.8169 9.99244 36.7294 9.81744 36.6331C9.32744 36.3619 8.85494 36.0381 8.42619 35.6794C8.41744 35.5744 8.40869 35.4869 8.40869 35.4431C8.40869 35.2156 8.41744 34.9969 8.43494 34.7781C8.46994 34.2181 8.54869 33.6756 8.67119 33.1506C8.86369 32.3544 9.14369 31.5844 9.51994 30.8756C9.58994 30.7269 9.66869 30.5781 9.75619 30.4381C9.79119 30.3681 9.83494 30.3069 9.86994 30.2369C10.0274 29.9831 10.2024 29.7381 10.3774 29.4931C10.7449 29.0119 11.1562 28.5569 11.5937 28.1456C11.6024 28.1456 11.6024 28.1456 11.6024 28.1456C11.6374 28.1106 11.6724 28.0756 11.7074 28.0494C11.7512 28.0144 11.7862 27.9706 11.8299 27.9444C12.0049 27.7869 12.1799 27.6469 12.3637 27.5156C12.3637 27.5069 12.3724 27.5069 12.3724 27.5069C14.0262 26.2731 16.0737 25.5469 18.3049 25.5469C20.0374 25.5469 21.6474 25.9844 23.0562 26.7544H23.0649C24.2724 27.4194 25.3224 28.3206 26.1537 29.4056C26.4774 29.8256 26.7662 30.2719 27.0112 30.7444H27.0199C27.0637 30.8319 27.1074 30.9194 27.1512 31.0069C27.4137 31.5231 27.6237 32.0656 27.7812 32.6256H27.7899C27.7987 32.6694 27.8162 32.7131 27.8249 32.7569C27.9299 33.1331 28.0174 33.5181 28.0787 33.9119C28.0874 33.9906 28.0962 34.0781 28.1049 34.1569C28.1662 34.5769 28.1924 35.0056 28.1924 35.4431Z" fill="#FFC107"/>
<path d="M26.3984 35.3452C26.3984 35.4852 26.3984 35.6339 26.3809 35.7739V35.7827C26.3809 35.7914 26.3809 35.7914 26.3809 35.7914C26.3634 36.4214 26.2759 37.0427 26.1359 37.6027C26.1359 37.6377 26.1272 37.6639 26.1097 37.6989H22.0234L18.6547 36.9727L18.2084 36.8764L18.1384 36.8939L14.4022 37.6639L14.2359 37.6989H13.9997C13.4397 37.6989 12.8884 37.6464 12.3547 37.5414C12.2759 37.5239 12.1972 37.5064 12.1184 37.4889H12.1097C11.4972 37.3577 10.9022 37.1564 10.3422 36.8939C10.3247 36.7977 10.3072 36.7014 10.2984 36.6052C10.2372 36.2289 10.2109 35.8352 10.2109 35.4414C10.2109 35.2927 10.2109 35.1439 10.2197 34.9952C10.2459 34.5227 10.3159 34.0589 10.4209 33.6127C10.4909 33.2802 10.5872 32.9564 10.7009 32.6502C10.7972 32.3789 10.9109 32.1164 11.0334 31.8627C11.1384 31.6439 11.2609 31.4339 11.3834 31.2239C11.5059 31.0227 11.6372 30.8302 11.7772 30.6377C12.1272 30.1564 12.5384 29.7102 12.9934 29.3164C13.2559 29.0889 13.5447 28.8702 13.8422 28.6777C15.1197 27.8377 16.6509 27.3477 18.3047 27.3477C18.6284 27.3477 18.9434 27.3652 19.2497 27.4089H19.2672C20.2034 27.5139 21.0784 27.7764 21.8834 28.1702C21.8922 28.1702 21.8922 28.1702 21.8922 28.1702C23.1609 28.7914 24.2372 29.7277 25.0247 30.8827C25.1559 31.0752 25.2872 31.2852 25.4009 31.4952C25.4972 31.6614 25.5847 31.8364 25.6634 32.0114C25.7859 32.2827 25.8997 32.5714 25.9959 32.8602H26.0047C26.1009 33.1839 26.1884 33.5077 26.2497 33.8489V33.8577C26.3459 34.3389 26.3984 34.8377 26.3984 35.3452Z" fill="#FFD54F"/>
<path d="M24.5961 35.5305V35.5567C24.5961 36.073 24.5349 36.5805 24.4124 37.0792C24.3686 37.2892 24.3074 37.4992 24.2286 37.7005H20.3086L18.3049 37.1492L16.3011 37.7005H13.9999C13.4399 37.7005 12.8886 37.648 12.3549 37.543C12.3374 37.5167 12.3286 37.4905 12.3199 37.4642C12.1974 37.088 12.1011 36.7117 12.0574 36.318C12.0224 36.0642 12.0049 35.8017 12.0049 35.5305C12.0049 35.4255 12.0049 35.3117 12.0224 35.2067C12.0311 34.7955 12.0924 34.393 12.1974 34.008C12.2499 33.7455 12.3286 33.4917 12.4336 33.2467C12.4686 33.1242 12.5211 33.0105 12.5824 32.8967C12.7136 32.5992 12.8711 32.3105 13.0461 32.0305C13.2386 31.7505 13.4486 31.488 13.6849 31.243C13.9649 30.928 14.2799 30.6392 14.6386 30.403C15.2511 29.9567 15.9511 29.6242 16.7124 29.4405C17.2199 29.3005 17.7536 29.2305 18.3049 29.2305C20.0549 29.2305 21.6211 29.9305 22.7586 31.0592C22.8024 31.103 22.8549 31.1555 22.8986 31.2167H22.9074C23.0299 31.348 23.1436 31.4792 23.2574 31.628C23.5811 32.0392 23.8524 32.4855 24.0624 32.9755C24.1674 33.203 24.2549 33.4392 24.3249 33.6842C24.3336 33.7192 24.3424 33.7455 24.3511 33.7805C24.4736 34.2092 24.5524 34.6555 24.5699 35.1192C24.5874 35.2505 24.5961 35.3905 24.5961 35.5305Z" fill="#FFE082"/>
<path d="M22.8026 35.5287C22.8026 35.8875 22.7589 36.2287 22.6626 36.5525C22.5751 36.9025 22.4439 37.235 22.2776 37.55C22.2514 37.6025 22.1901 37.6987 22.1901 37.6987H14.4201C14.4114 37.69 14.4026 37.6725 14.4026 37.6637C14.2976 37.4975 14.2101 37.3312 14.1401 37.1475C13.9651 36.745 13.8601 36.3075 13.8251 35.8525C13.8076 35.7475 13.8076 35.6337 13.8076 35.5287C13.8076 35.4762 13.8076 35.415 13.8164 35.3625C13.8251 34.9775 13.8776 34.61 13.9826 34.2688C14.0701 33.9538 14.1839 33.665 14.3326 33.385C14.3326 33.385 14.3414 33.3762 14.3414 33.3675C14.4464 33.1837 14.5601 33 14.6914 32.825C15.1201 32.2475 15.6889 31.775 16.3451 31.4688C16.3539 31.4688 16.3539 31.4688 16.3539 31.4688C16.5639 31.3638 16.7826 31.2762 17.0101 31.215C17.0101 31.215 17.0101 31.215 17.0189 31.215C17.4214 31.0925 17.8589 31.0312 18.3051 31.0312C18.8214 31.0312 19.3201 31.11 19.7751 31.2762C19.9414 31.32 20.0989 31.39 20.2564 31.4688C20.2564 31.4688 20.2564 31.4688 20.2651 31.4688C21.0176 31.8275 21.6564 32.3875 22.0939 33.0875C22.1814 33.2187 22.2601 33.3587 22.3301 33.5075C22.3651 33.5687 22.4001 33.6387 22.4264 33.7C22.6276 34.155 22.7501 34.6537 22.7851 35.1787C22.7939 35.2225 22.7939 35.2662 22.7939 35.3187C22.8026 35.3887 22.8026 35.4587 22.8026 35.5287Z" fill="#FFECB3"/>
<path d="M26.25 10.5742H15.75C12.3375 10.5742 9.625 13.2867 9.625 16.6992V27.1992C9.625 30.6117 12.3375 33.3242 15.75 33.3242H26.25C29.6625 33.3242 32.375 30.6117 32.375 27.1992V16.6992C32.375 13.2867 29.6625 10.5742 26.25 10.5742Z" stroke="white" stroke-width="1.75" stroke-miterlimit="10" stroke-linecap="round" stroke-linejoin="round"/>
<path d="M27.125 15.8242C27.6082 15.8242 28 15.4325 28 14.9492C28 14.466 27.6082 14.0742 27.125 14.0742C26.6418 14.0742 26.25 14.466 26.25 14.9492C26.25 15.4325 26.6418 15.8242 27.125 15.8242Z" fill="white"/>
<path d="M21 27.1992C23.8995 27.1992 26.25 24.8487 26.25 21.9492C26.25 19.0497 23.8995 16.6992 21 16.6992C18.1005 16.6992 15.75 19.0497 15.75 21.9492C15.75 24.8487 18.1005 27.1992 21 27.1992Z" stroke="white" stroke-width="1.75" stroke-miterlimit="10" stroke-linecap="round" stroke-linejoin="round"/>
</svg>
