<svg width="42" height="43" viewBox="0 0 42 43" fill="none" xmlns="http://www.w3.org/2000/svg">
<path d="M36.7502 11.8246C35.5926 12.3373 34.3474 12.6795 33.0341 12.8413C34.3693 12.0486 35.3966 10.7842 35.8787 9.29059C34.6292 10.023 33.2449 10.5611 31.7723 10.8446C30.5963 9.59772 28.9189 8.82422 27.0604 8.82422C23.4904 8.82422 20.5968 11.6925 20.5968 15.2292C20.5968 15.7297 20.6554 16.2171 20.7657 16.6905C15.3949 16.421 10.6314 13.8677 7.44468 9.99322C6.88468 10.94 6.56968 12.0486 6.56968 13.2185C6.56968 15.4418 7.70806 17.3992 9.44406 18.5525C8.38443 18.5201 7.38693 18.2252 6.51368 17.7527C6.51368 17.772 6.51368 17.8008 6.51368 17.828C6.51368 20.9351 8.74231 23.5225 11.6963 24.1113C11.1564 24.2592 10.5859 24.3415 9.99793 24.3415C9.58056 24.3415 9.17368 24.2942 8.77993 24.2233C9.60243 26.7626 11.9886 28.6185 14.8157 28.6736C12.6037 30.3886 9.81768 31.4158 6.78843 31.4158C6.26518 31.4158 5.75331 31.3861 5.24756 31.3248C8.10968 33.137 11.5082 34.1992 15.1561 34.1992C27.0429 34.1992 33.5459 24.4377 33.5459 15.9695C33.5459 15.6921 33.5372 15.4156 33.5241 15.1426C34.7928 14.2466 35.8866 13.1161 36.7502 11.8246Z" fill="#03A9F4"/>
</svg>
